<svg xmlns="http://www.w3.org/2000/svg" version="1.1" xmlns:xlink="http://www.w3.org/1999/xlink" xmlns:svgjs="http://svgjs.dev/svgjs" width="1440" height="750" preserveAspectRatio="none" viewBox="0 0 1440 750"><g mask="url(&quot;#SvgjsMask5725&quot;)" fill="none"><rect width="1440" height="750" x="0" y="0" fill="url(&quot;#SvgjsLinearGradient5726&quot;)"></rect><path d="M40 750L790 0L1085.5 0L335.5 750z" fill="url(&quot;#SvgjsLinearGradient5727&quot;)"></path><path d="M500.20000000000005 750L1250.2 0L1572.7 0L822.7 750z" fill="url(&quot;#SvgjsLinearGradient5727&quot;)"></path><path d="M1418 750L668 0L470 0L1220 750z" fill="url(&quot;#SvgjsLinearGradient5728&quot;)"></path><path d="M936.8 750L186.79999999999995 0L-63.700000000000045 0L686.3 750z" fill="url(&quot;#SvgjsLinearGradient5728&quot;)"></path><path d="M934.3152071066011 750L1440 244.31520710660106L1440 750z" fill="url(&quot;#SvgjsLinearGradient5727&quot;)"></path><path d="M0 750L505.68479289339894 750L 0 244.31520710660106z" fill="url(&quot;#SvgjsLinearGradient5728&quot;)"></path></g><defs><mask id="SvgjsMask5725"><rect width="1440" height="750" fill="#ffffff"></rect></mask><linearGradient x1="0%" y1="50%" x2="100%" y2="50%" gradientUnits="userSpaceOnUse" id="SvgjsLinearGradient5726"><stop stop-color="rgba(14, 42, 71, 1)" offset="0.08"></stop><stop stop-color="rgba(20, 14, 71, 0)" offset="0.53"></stop></linearGradient><linearGradient x1="0%" y1="100%" x2="100%" y2="0%" id="SvgjsLinearGradient5727"><stop stop-color="rgba(15, 70, 185, 0.2)" offset="0"></stop><stop stop-opacity="0" stop-color="rgba(15, 70, 185, 0.2)" offset="0.66"></stop></linearGradient><linearGradient x1="100%" y1="100%" x2="0%" y2="0%" id="SvgjsLinearGradient5728"><stop stop-color="rgba(15, 70, 185, 0.2)" offset="0"></stop><stop stop-opacity="0" stop-color="rgba(15, 70, 185, 0.2)" offset="0.66"></stop></linearGradient></defs></svg>