<svg xmlns="http://www.w3.org/2000/svg" version="1.1" xmlns:xlink="http://www.w3.org/1999/xlink" xmlns:svgjs="http://svgjs.dev/svgjs" width="1440" height="560" preserveAspectRatio="none" viewBox="0 0 1440 560"><g mask="url(&quot;#SvgjsMask1723&quot;)" fill="none"><path d="M-86.01 366.77L-86.01 366.77" stroke="rgba(255, 255, 255, 1)" stroke-width="1.5"></path><path d="M-86.01 366.77L-80.65 508.9" stroke="rgba(255, 255, 255, 1)" stroke-width="1.5"></path><path d="M-86.01 366.77L87.89 369.54" stroke="rgba(255, 255, 255, 1)" stroke-width="1.5"></path><path d="M-86.01 366.77L64.66 538.45" stroke="rgba(255, 255, 255, 1)" stroke-width="1.5"></path><path d="M-86.01 366.77L-89.28 666.68" stroke="rgba(255, 255, 255, 1)" stroke-width="1.5"></path><path d="M-86.01 366.77L244.98 402.75" stroke="rgba(255, 255, 255, 1)" stroke-width="1.5"></path><path d="M-80.65 508.9L-80.65 508.9" stroke="rgba(255, 255, 255, 1)" stroke-width="1.5"></path><path d="M-80.65 508.9L64.66 538.45" stroke="rgba(255, 255, 255, 1)" stroke-width="1.5"></path><path d="M-89.28 666.68L-89.28 666.68" stroke="rgba(255, 255, 255, 1)" stroke-width="1.5"></path><path d="M-89.28 666.68L-80.65 508.9" stroke="rgba(255, 255, 255, 1)" stroke-width="1.5"></path><path d="M-89.28 666.68L85.75 660.6" stroke="rgba(255, 255, 255, 1)" stroke-width="1.5"></path><path d="M-89.28 666.68L64.66 538.45" stroke="rgba(255, 255, 255, 1)" stroke-width="1.5"></path><path d="M87.89 369.54L87.89 369.54" stroke="rgba(255, 255, 255, 1)" stroke-width="1.5"></path><path d="M87.89 369.54L244.98 402.75" stroke="rgba(255, 255, 255, 1)" stroke-width="1.5"></path><path d="M87.89 369.54L64.66 538.45" stroke="rgba(255, 255, 255, 1)" stroke-width="1.5"></path><path d="M87.89 369.54L-80.65 508.9" stroke="rgba(255, 255, 255, 1)" stroke-width="1.5"></path><path d="M87.89 369.54L257.11 530.26" stroke="rgba(255, 255, 255, 1)" stroke-width="1.5"></path><path d="M87.89 369.54L85.75 660.6" stroke="rgba(255, 255, 255, 1)" stroke-width="1.5"></path><path d="M64.66 538.45L64.66 538.45" stroke="rgba(255, 255, 255, 1)" stroke-width="1.5"></path><path d="M64.66 538.45L85.75 660.6" stroke="rgba(255, 255, 255, 1)" stroke-width="1.5"></path><path d="M64.66 538.45L257.11 530.26" stroke="rgba(255, 255, 255, 1)" stroke-width="1.5"></path><path d="M85.75 660.6L85.75 660.6" stroke="rgba(255, 255, 255, 1)" stroke-width="1.5"></path><path d="M85.75 660.6L247.46 645.34" stroke="rgba(255, 255, 255, 1)" stroke-width="1.5"></path><path d="M244.98 402.75L244.98 402.75" stroke="rgba(255, 255, 255, 1)" stroke-width="1.5"></path><path d="M244.98 402.75L257.11 530.26" stroke="rgba(255, 255, 255, 1)" stroke-width="1.5"></path><path d="M244.98 402.75L383.58 360.56" stroke="rgba(255, 255, 255, 1)" stroke-width="1.5"></path><path d="M244.98 402.75L397.58 557.1" stroke="rgba(255, 255, 255, 1)" stroke-width="1.5"></path><path d="M244.98 402.75L64.66 538.45" stroke="rgba(255, 255, 255, 1)" stroke-width="1.5"></path><path d="M257.11 530.26L257.11 530.26" stroke="rgba(255, 255, 255, 1)" stroke-width="1.5"></path><path d="M257.11 530.26L247.46 645.34" stroke="rgba(255, 255, 255, 1)" stroke-width="1.5"></path><path d="M257.11 530.26L397.58 557.1" stroke="rgba(255, 255, 255, 1)" stroke-width="1.5"></path><path d="M247.46 645.34L247.46 645.34" stroke="rgba(255, 255, 255, 1)" stroke-width="1.5"></path><path d="M247.46 645.34L376.32 705.59" stroke="rgba(255, 255, 255, 1)" stroke-width="1.5"></path><path d="M383.58 360.56L383.58 360.56" stroke="rgba(255, 255, 255, 1)" stroke-width="1.5"></path><path d="M383.58 360.56L493.09 398.02" stroke="rgba(255, 255, 255, 1)" stroke-width="1.5"></path><path d="M397.58 557.1L397.58 557.1" stroke="rgba(255, 255, 255, 1)" stroke-width="1.5"></path><path d="M397.58 557.1L491.02 670.78" stroke="rgba(255, 255, 255, 1)" stroke-width="1.5"></path><path d="M397.58 557.1L376.32 705.59" stroke="rgba(255, 255, 255, 1)" stroke-width="1.5"></path><path d="M376.32 705.59L376.32 705.59" stroke="rgba(255, 255, 255, 1)" stroke-width="1.5"></path><path d="M376.32 705.59L491.02 670.78" stroke="rgba(255, 255, 255, 1)" stroke-width="1.5"></path><path d="M376.32 705.59L257.11 530.26" stroke="rgba(255, 255, 255, 1)" stroke-width="1.5"></path><path d="M493.09 398.02L493.09 398.02" stroke="rgba(255, 255, 255, 1)" stroke-width="1.5"></path><path d="M493.09 398.02L645.33 385.43" stroke="rgba(255, 255, 255, 1)" stroke-width="1.5"></path><path d="M493.09 398.02L560.68 542.39" stroke="rgba(255, 255, 255, 1)" stroke-width="1.5"></path><path d="M493.09 398.02L397.58 557.1" stroke="rgba(255, 255, 255, 1)" stroke-width="1.5"></path><path d="M560.68 542.39L560.68 542.39" stroke="rgba(255, 255, 255, 1)" stroke-width="1.5"></path><path d="M560.68 542.39L666.07 559.67" stroke="rgba(255, 255, 255, 1)" stroke-width="1.5"></path><path d="M560.68 542.39L491.02 670.78" stroke="rgba(255, 255, 255, 1)" stroke-width="1.5"></path><path d="M491.02 670.78L491.02 670.78" stroke="rgba(255, 255, 255, 1)" stroke-width="1.5"></path><path d="M676.49 223.81L676.49 223.81" stroke="rgba(255, 255, 255, 1)" stroke-width="1.5"></path><path d="M676.49 223.81L645.33 385.43" stroke="rgba(255, 255, 255, 1)" stroke-width="1.5"></path><path d="M676.49 223.81L829.04 363.68" stroke="rgba(255, 255, 255, 1)" stroke-width="1.5"></path><path d="M676.49 223.81L493.09 398.02" stroke="rgba(255, 255, 255, 1)" stroke-width="1.5"></path><path d="M676.49 223.81L801.65 515.31" stroke="rgba(255, 255, 255, 1)" stroke-width="1.5"></path><path d="M645.33 385.43L645.33 385.43" stroke="rgba(255, 255, 255, 1)" stroke-width="1.5"></path><path d="M645.33 385.43L666.07 559.67" stroke="rgba(255, 255, 255, 1)" stroke-width="1.5"></path><path d="M645.33 385.43L560.68 542.39" stroke="rgba(255, 255, 255, 1)" stroke-width="1.5"></path><path d="M645.33 385.43L829.04 363.68" stroke="rgba(255, 255, 255, 1)" stroke-width="1.5"></path><path d="M666.07 559.67L666.07 559.67" stroke="rgba(255, 255, 255, 1)" stroke-width="1.5"></path><path d="M706.78 688.11L706.78 688.11" stroke="rgba(255, 255, 255, 1)" stroke-width="1.5"></path><path d="M706.78 688.11L792.67 674.87" stroke="rgba(255, 255, 255, 1)" stroke-width="1.5"></path><path d="M706.78 688.11L666.07 559.67" stroke="rgba(255, 255, 255, 1)" stroke-width="1.5"></path><path d="M829.04 363.68L829.04 363.68" stroke="rgba(255, 255, 255, 1)" stroke-width="1.5"></path><path d="M829.04 363.68L801.65 515.31" stroke="rgba(255, 255, 255, 1)" stroke-width="1.5"></path><path d="M829.04 363.68L1007.29 402.76" stroke="rgba(255, 255, 255, 1)" stroke-width="1.5"></path><path d="M801.65 515.31L801.65 515.31" stroke="rgba(255, 255, 255, 1)" stroke-width="1.5"></path><path d="M801.65 515.31L666.07 559.67" stroke="rgba(255, 255, 255, 1)" stroke-width="1.5"></path><path d="M801.65 515.31L792.67 674.87" stroke="rgba(255, 255, 255, 1)" stroke-width="1.5"></path><path d="M801.65 515.31L987.77 502.68" stroke="rgba(255, 255, 255, 1)" stroke-width="1.5"></path><path d="M801.65 515.31L706.78 688.11" stroke="rgba(255, 255, 255, 1)" stroke-width="1.5"></path><path d="M801.65 515.31L645.33 385.43" stroke="rgba(255, 255, 255, 1)" stroke-width="1.5"></path><path d="M792.67 674.87L792.67 674.87" stroke="rgba(255, 255, 255, 1)" stroke-width="1.5"></path><path d="M792.67 674.87L666.07 559.67" stroke="rgba(255, 255, 255, 1)" stroke-width="1.5"></path><path d="M792.67 674.87L1006.72 665.76" stroke="rgba(255, 255, 255, 1)" stroke-width="1.5"></path><path d="M792.67 674.87L987.77 502.68" stroke="rgba(255, 255, 255, 1)" stroke-width="1.5"></path><path d="M966.18 -87.39L966.18 -87.39" stroke="rgba(255, 255, 255, 1)" stroke-width="1.5"></path><path d="M966.18 -87.39L952.1 55.77" stroke="rgba(255, 255, 255, 1)" stroke-width="1.5"></path><path d="M966.18 -87.39L1118.03 -48.67" stroke="rgba(255, 255, 255, 1)" stroke-width="1.5"></path><path d="M966.18 -87.39L1003.27 216.88" stroke="rgba(255, 255, 255, 1)" stroke-width="1.5"></path><path d="M952.1 55.77L952.1 55.77" stroke="rgba(255, 255, 255, 1)" stroke-width="1.5"></path><path d="M952.1 55.77L1003.27 216.88" stroke="rgba(255, 255, 255, 1)" stroke-width="1.5"></path><path d="M1003.27 216.88L1003.27 216.88" stroke="rgba(255, 255, 255, 1)" stroke-width="1.5"></path><path d="M1003.27 216.88L1140.46 254.51" stroke="rgba(255, 255, 255, 1)" stroke-width="1.5"></path><path d="M1003.27 216.88L1007.29 402.76" stroke="rgba(255, 255, 255, 1)" stroke-width="1.5"></path><path d="M1003.27 216.88L829.04 363.68" stroke="rgba(255, 255, 255, 1)" stroke-width="1.5"></path><path d="M1003.27 216.88L987.77 502.68" stroke="rgba(255, 255, 255, 1)" stroke-width="1.5"></path><path d="M1007.29 402.76L1007.29 402.76" stroke="rgba(255, 255, 255, 1)" stroke-width="1.5"></path><path d="M1007.29 402.76L987.77 502.68" stroke="rgba(255, 255, 255, 1)" stroke-width="1.5"></path><path d="M1007.29 402.76L1140.46 254.51" stroke="rgba(255, 255, 255, 1)" stroke-width="1.5"></path><path d="M1007.29 402.76L1153.9 546.88" stroke="rgba(255, 255, 255, 1)" stroke-width="1.5"></path><path d="M987.77 502.68L987.77 502.68" stroke="rgba(255, 255, 255, 1)" stroke-width="1.5"></path><path d="M987.77 502.68L1006.72 665.76" stroke="rgba(255, 255, 255, 1)" stroke-width="1.5"></path><path d="M987.77 502.68L1153.9 546.88" stroke="rgba(255, 255, 255, 1)" stroke-width="1.5"></path><path d="M1006.72 665.76L1006.72 665.76" stroke="rgba(255, 255, 255, 1)" stroke-width="1.5"></path><path d="M1006.72 665.76L1110.41 679.46" stroke="rgba(255, 255, 255, 1)" stroke-width="1.5"></path><path d="M1006.72 665.76L1153.9 546.88" stroke="rgba(255, 255, 255, 1)" stroke-width="1.5"></path><path d="M1118.03 -48.67L1118.03 -48.67" stroke="rgba(255, 255, 255, 1)" stroke-width="1.5"></path><path d="M1118.03 -48.67L1299.74 -57.85" stroke="rgba(255, 255, 255, 1)" stroke-width="1.5"></path><path d="M1118.03 -48.67L952.1 55.77" stroke="rgba(255, 255, 255, 1)" stroke-width="1.5"></path><path d="M1118.03 -48.67L1290.3 103.91" stroke="rgba(255, 255, 255, 1)" stroke-width="1.5"></path><path d="M1118.03 -48.67L1003.27 216.88" stroke="rgba(255, 255, 255, 1)" stroke-width="1.5"></path><path d="M1140.46 254.51L1140.46 254.51" stroke="rgba(255, 255, 255, 1)" stroke-width="1.5"></path><path d="M1140.46 254.51L1300.68 251.49" stroke="rgba(255, 255, 255, 1)" stroke-width="1.5"></path><path d="M1140.46 254.51L1290.3 103.91" stroke="rgba(255, 255, 255, 1)" stroke-width="1.5"></path><path d="M1140.46 254.51L1297.94 410.1" stroke="rgba(255, 255, 255, 1)" stroke-width="1.5"></path><path d="M1153.9 546.88L1153.9 546.88" stroke="rgba(255, 255, 255, 1)" stroke-width="1.5"></path><path d="M1153.9 546.88L1110.41 679.46" stroke="rgba(255, 255, 255, 1)" stroke-width="1.5"></path><path d="M1110.41 679.46L1110.41 679.46" stroke="rgba(255, 255, 255, 1)" stroke-width="1.5"></path><path d="M1299.74 -57.85L1299.74 -57.85" stroke="rgba(255, 255, 255, 1)" stroke-width="1.5"></path><path d="M1299.74 -57.85L1438.5 -88.64" stroke="rgba(255, 255, 255, 1)" stroke-width="1.5"></path><path d="M1299.74 -57.85L1290.3 103.91" stroke="rgba(255, 255, 255, 1)" stroke-width="1.5"></path><path d="M1299.74 -57.85L1448.97 82.75" stroke="rgba(255, 255, 255, 1)" stroke-width="1.5"></path><path d="M1299.74 -57.85L1554.94 -105.17" stroke="rgba(255, 255, 255, 1)" stroke-width="1.5"></path><path d="M1290.3 103.91L1290.3 103.91" stroke="rgba(255, 255, 255, 1)" stroke-width="1.5"></path><path d="M1290.3 103.91L1300.68 251.49" stroke="rgba(255, 255, 255, 1)" stroke-width="1.5"></path><path d="M1290.3 103.91L1448.97 82.75" stroke="rgba(255, 255, 255, 1)" stroke-width="1.5"></path><path d="M1300.68 251.49L1300.68 251.49" stroke="rgba(255, 255, 255, 1)" stroke-width="1.5"></path><path d="M1300.68 251.49L1297.94 410.1" stroke="rgba(255, 255, 255, 1)" stroke-width="1.5"></path><path d="M1300.68 251.49L1460.94 253.17" stroke="rgba(255, 255, 255, 1)" stroke-width="1.5"></path><path d="M1300.68 251.49L1395.86 383.63" stroke="rgba(255, 255, 255, 1)" stroke-width="1.5"></path><path d="M1300.68 251.49L1448.97 82.75" stroke="rgba(255, 255, 255, 1)" stroke-width="1.5"></path><path d="M1297.94 410.1L1297.94 410.1" stroke="rgba(255, 255, 255, 1)" stroke-width="1.5"></path><path d="M1297.94 410.1L1395.86 383.63" stroke="rgba(255, 255, 255, 1)" stroke-width="1.5"></path><path d="M1297.94 410.1L1449.47 505.63" stroke="rgba(255, 255, 255, 1)" stroke-width="1.5"></path><path d="M1297.94 410.1L1153.9 546.88" stroke="rgba(255, 255, 255, 1)" stroke-width="1.5"></path><path d="M1438.5 -88.64L1438.5 -88.64" stroke="rgba(255, 255, 255, 1)" stroke-width="1.5"></path><path d="M1438.5 -88.64L1554.94 -105.17" stroke="rgba(255, 255, 255, 1)" stroke-width="1.5"></path><path d="M1448.97 82.75L1448.97 82.75" stroke="rgba(255, 255, 255, 1)" stroke-width="1.5"></path><path d="M1448.97 82.75L1582.44 105.81" stroke="rgba(255, 255, 255, 1)" stroke-width="1.5"></path><path d="M1448.97 82.75L1460.94 253.17" stroke="rgba(255, 255, 255, 1)" stroke-width="1.5"></path><path d="M1448.97 82.75L1438.5 -88.64" stroke="rgba(255, 255, 255, 1)" stroke-width="1.5"></path><path d="M1448.97 82.75L1554.94 -105.17" stroke="rgba(255, 255, 255, 1)" stroke-width="1.5"></path><path d="M1460.94 253.17L1460.94 253.17" stroke="rgba(255, 255, 255, 1)" stroke-width="1.5"></path><path d="M1460.94 253.17L1395.86 383.63" stroke="rgba(255, 255, 255, 1)" stroke-width="1.5"></path><path d="M1395.86 383.63L1395.86 383.63" stroke="rgba(255, 255, 255, 1)" stroke-width="1.5"></path><path d="M1395.86 383.63L1449.47 505.63" stroke="rgba(255, 255, 255, 1)" stroke-width="1.5"></path><path d="M1395.86 383.63L1574.15 384.53" stroke="rgba(255, 255, 255, 1)" stroke-width="1.5"></path><path d="M1449.47 505.63L1449.47 505.63" stroke="rgba(255, 255, 255, 1)" stroke-width="1.5"></path><path d="M1449.47 505.63L1611.69 545.66" stroke="rgba(255, 255, 255, 1)" stroke-width="1.5"></path><path d="M1449.47 505.63L1574.15 384.53" stroke="rgba(255, 255, 255, 1)" stroke-width="1.5"></path><path d="M1449.47 505.63L1543.2 657.61" stroke="rgba(255, 255, 255, 1)" stroke-width="1.5"></path><path d="M1449.47 505.63L1450.04 705.51" stroke="rgba(255, 255, 255, 1)" stroke-width="1.5"></path><path d="M1450.04 705.51L1450.04 705.51" stroke="rgba(255, 255, 255, 1)" stroke-width="1.5"></path><path d="M1450.04 705.51L1543.2 657.61" stroke="rgba(255, 255, 255, 1)" stroke-width="1.5"></path><path d="M1450.04 705.51L1611.69 545.66" stroke="rgba(255, 255, 255, 1)" stroke-width="1.5"></path><path d="M1450.04 705.51L1395.86 383.63" stroke="rgba(255, 255, 255, 1)" stroke-width="1.5"></path><path d="M1450.04 705.51L1297.94 410.1" stroke="rgba(255, 255, 255, 1)" stroke-width="1.5"></path><path d="M1450.04 705.51L1153.9 546.88" stroke="rgba(255, 255, 255, 1)" stroke-width="1.5"></path><path d="M1554.94 -105.17L1554.94 -105.17" stroke="rgba(255, 255, 255, 1)" stroke-width="1.5"></path><path d="M1554.94 -105.17L1582.44 105.81" stroke="rgba(255, 255, 255, 1)" stroke-width="1.5"></path><path d="M1554.94 -105.17L1290.3 103.91" stroke="rgba(255, 255, 255, 1)" stroke-width="1.5"></path><path d="M1582.44 105.81L1582.44 105.81" stroke="rgba(255, 255, 255, 1)" stroke-width="1.5"></path><path d="M1582.44 105.81L1460.94 253.17" stroke="rgba(255, 255, 255, 1)" stroke-width="1.5"></path><path d="M1582.44 105.81L1438.5 -88.64" stroke="rgba(255, 255, 255, 1)" stroke-width="1.5"></path><path d="M1574.15 384.53L1574.15 384.53" stroke="rgba(255, 255, 255, 1)" stroke-width="1.5"></path><path d="M1574.15 384.53L1611.69 545.66" stroke="rgba(255, 255, 255, 1)" stroke-width="1.5"></path><path d="M1574.15 384.53L1460.94 253.17" stroke="rgba(255, 255, 255, 1)" stroke-width="1.5"></path><path d="M1611.69 545.66L1611.69 545.66" stroke="rgba(255, 255, 255, 1)" stroke-width="1.5"></path><path d="M1611.69 545.66L1543.2 657.61" stroke="rgba(255, 255, 255, 1)" stroke-width="1.5"></path><path d="M1543.2 657.61L1543.2 657.61" stroke="rgba(255, 255, 255, 1)" stroke-width="1.5"></path><path d="M1543.2 657.61L1574.15 384.53" stroke="rgba(255, 255, 255, 1)" stroke-width="1.5"></path><path d="M1543.2 657.61L1395.86 383.63" stroke="rgba(255, 255, 255, 1)" stroke-width="1.5"></path><path d="M1543.2 657.61L1297.94 410.1" stroke="rgba(255, 255, 255, 1)" stroke-width="1.5"></path><circle r="5" cx="-86.01" cy="366.77" fill="rgba(255, 255, 255, 1)"></circle><circle r="5" cx="-80.65" cy="508.9" fill="rgba(255, 255, 255, 1)"></circle><circle r="5" cx="-89.28" cy="666.68" fill="rgba(255, 255, 255, 1)"></circle><circle r="5" cx="87.89" cy="369.54" fill="rgba(255, 255, 255, 1)"></circle><circle r="5" cx="64.66" cy="538.45" fill="rgba(255, 255, 255, 1)"></circle><circle r="5" cx="85.75" cy="660.6" fill="rgba(255, 255, 255, 1)"></circle><circle r="5" cx="244.98" cy="402.75" fill="rgba(255, 255, 255, 1)"></circle><circle r="5" cx="257.11" cy="530.26" fill="rgba(255, 255, 255, 1)"></circle><circle r="5" cx="247.46" cy="645.34" fill="rgba(255, 255, 255, 1)"></circle><circle r="5" cx="383.58" cy="360.56" fill="rgba(255, 255, 255, 1)"></circle><circle r="5" cx="397.58" cy="557.1" fill="rgba(255, 255, 255, 1)"></circle><circle r="5" cx="376.32" cy="705.59" fill="rgba(255, 255, 255, 1)"></circle><circle r="5" cx="493.09" cy="398.02" fill="rgba(255, 255, 255, 1)"></circle><circle r="5" cx="560.68" cy="542.39" fill="rgba(255, 255, 255, 1)"></circle><circle r="5" cx="491.02" cy="670.78" fill="rgba(255, 255, 255, 1)"></circle><circle r="5" cx="676.49" cy="223.81" fill="rgba(255, 255, 255, 1)"></circle><circle r="5" cx="645.33" cy="385.43" fill="rgba(255, 255, 255, 1)"></circle><circle r="5" cx="666.07" cy="559.67" fill="rgba(255, 255, 255, 1)"></circle><circle r="5" cx="706.78" cy="688.11" fill="rgba(255, 255, 255, 1)"></circle><circle r="5" cx="829.04" cy="363.68" fill="rgba(255, 255, 255, 1)"></circle><circle r="5" cx="801.65" cy="515.31" fill="rgba(255, 255, 255, 1)"></circle><circle r="5" cx="792.67" cy="674.87" fill="rgba(255, 255, 255, 1)"></circle><circle r="5" cx="966.18" cy="-87.39" fill="rgba(255, 255, 255, 1)"></circle><circle r="5" cx="952.1" cy="55.77" fill="rgba(255, 255, 255, 1)"></circle><circle r="5" cx="1003.27" cy="216.88" fill="rgba(255, 255, 255, 1)"></circle><circle r="5" cx="1007.29" cy="402.76" fill="rgba(255, 255, 255, 1)"></circle><circle r="5" cx="987.77" cy="502.68" fill="rgba(255, 255, 255, 1)"></circle><circle r="5" cx="1006.72" cy="665.76" fill="rgba(255, 255, 255, 1)"></circle><circle r="5" cx="1118.03" cy="-48.67" fill="rgba(255, 255, 255, 1)"></circle><circle r="5" cx="1140.46" cy="254.51" fill="rgba(255, 255, 255, 1)"></circle><circle r="5" cx="1153.9" cy="546.88" fill="rgba(255, 255, 255, 1)"></circle><circle r="5" cx="1110.41" cy="679.46" fill="rgba(255, 255, 255, 1)"></circle><circle r="5" cx="1299.74" cy="-57.85" fill="rgba(255, 255, 255, 1)"></circle><circle r="5" cx="1290.3" cy="103.91" fill="rgba(255, 255, 255, 1)"></circle><circle r="5" cx="1300.68" cy="251.49" fill="rgba(255, 255, 255, 1)"></circle><circle r="5" cx="1297.94" cy="410.1" fill="rgba(255, 255, 255, 1)"></circle><circle r="5" cx="1438.5" cy="-88.64" fill="rgba(255, 255, 255, 1)"></circle><circle r="5" cx="1448.97" cy="82.75" fill="rgba(255, 255, 255, 1)"></circle><circle r="5" cx="1460.94" cy="253.17" fill="rgba(255, 255, 255, 1)"></circle><circle r="5" cx="1395.86" cy="383.63" fill="rgba(255, 255, 255, 1)"></circle><circle r="5" cx="1449.47" cy="505.63" fill="rgba(255, 255, 255, 1)"></circle><circle r="5" cx="1450.04" cy="705.51" fill="rgba(255, 255, 255, 1)"></circle><circle r="5" cx="1554.94" cy="-105.17" fill="rgba(255, 255, 255, 1)"></circle><circle r="5" cx="1582.44" cy="105.81" fill="rgba(255, 255, 255, 1)"></circle><circle r="5" cx="1574.15" cy="384.53" fill="rgba(255, 255, 255, 1)"></circle><circle r="5" cx="1611.69" cy="545.66" fill="rgba(255, 255, 255, 1)"></circle><circle r="5" cx="1543.2" cy="657.61" fill="rgba(255, 255, 255, 1)"></circle><path d="M-42.81 676.11L-42.81 676.11" stroke="hsl(228.5, 77.2%, 51.5%)" stroke-width="1.5"></path><path d="M-42.81 676.11L-91.54 544.88" stroke="hsl(228.5, 77.2%, 51.5%)" stroke-width="1.5"></path><path d="M-42.81 676.11L92.11 517.75" stroke="hsl(228.5, 77.2%, 51.5%)" stroke-width="1.5"></path><path d="M-42.81 676.11L194.32 668.36" stroke="hsl(228.5, 77.2%, 51.5%)" stroke-width="1.5"></path><path d="M-42.81 676.11L208.59 514.12" stroke="hsl(228.5, 77.2%, 51.5%)" stroke-width="1.5"></path><path d="M-42.81 676.11L376.13 670.24" stroke="hsl(228.5, 77.2%, 51.5%)" stroke-width="1.5"></path><path d="M376.13 670.24L376.13 670.24" stroke="hsl(228.5, 77.2%, 51.5%)" stroke-width="1.5"></path><path d="M376.13 670.24L356.85 495.81" stroke="hsl(228.5, 77.2%, 51.5%)" stroke-width="1.5"></path><path d="M562.38 547.55L562.38 547.55" stroke="hsl(228.5, 77.2%, 51.5%)" stroke-width="1.5"></path><path d="M562.38 547.55L561.55 645.07" stroke="hsl(228.5, 77.2%, 51.5%)" stroke-width="1.5"></path><path d="M562.38 547.55L693.26 559.05" stroke="hsl(228.5, 77.2%, 51.5%)" stroke-width="1.5"></path><path d="M561.55 645.07L561.55 645.07" stroke="hsl(228.5, 77.2%, 51.5%)" stroke-width="1.5"></path><path d="M561.55 645.07L693.26 559.05" stroke="hsl(228.5, 77.2%, 51.5%)" stroke-width="1.5"></path><path d="M561.55 645.07L376.13 670.24" stroke="hsl(228.5, 77.2%, 51.5%)" stroke-width="1.5"></path><path d="M561.55 645.07L513.99 403.72" stroke="hsl(228.5, 77.2%, 51.5%)" stroke-width="1.5"></path><path d="M561.55 645.07L356.85 495.81" stroke="hsl(228.5, 77.2%, 51.5%)" stroke-width="1.5"></path><path d="M981.76 392.22L981.76 392.22" stroke="hsl(228.5, 77.2%, 51.5%)" stroke-width="1.5"></path><path d="M981.76 392.22L976.14 524.02" stroke="hsl(228.5, 77.2%, 51.5%)" stroke-width="1.5"></path><path d="M981.76 392.22L839.07 380.44" stroke="hsl(228.5, 77.2%, 51.5%)" stroke-width="1.5"></path><path d="M981.76 392.22L1134.53 408.33" stroke="hsl(228.5, 77.2%, 51.5%)" stroke-width="1.5"></path><path d="M981.76 392.22L1126.82 556.61" stroke="hsl(228.5, 77.2%, 51.5%)" stroke-width="1.5"></path><path d="M981.76 392.22L1110.56 214.13" stroke="hsl(228.5, 77.2%, 51.5%)" stroke-width="1.5"></path><path d="M1404.58 248.84L1404.58 248.84" stroke="hsl(228.5, 77.2%, 51.5%)" stroke-width="1.5"></path><path d="M1404.58 248.84L1396.91 340.78" stroke="hsl(228.5, 77.2%, 51.5%)" stroke-width="1.5"></path><path d="M1404.58 248.84L1303.6 229.7" stroke="hsl(228.5, 77.2%, 51.5%)" stroke-width="1.5"></path><path d="M1429.53 525.15L1429.53 525.15" stroke="hsl(228.5, 77.2%, 51.5%)" stroke-width="1.5"></path><path d="M1429.53 525.15L1291.43 526.35" stroke="hsl(228.5, 77.2%, 51.5%)" stroke-width="1.5"></path><path d="M1429.53 525.15L1573.95 497.61" stroke="hsl(228.5, 77.2%, 51.5%)" stroke-width="1.5"></path><path d="M1429.53 525.15L1436.35 700.01" stroke="hsl(228.5, 77.2%, 51.5%)" stroke-width="1.5"></path><path d="M1581.7 -77.36L1581.7 -77.36" stroke="hsl(228.5, 77.2%, 51.5%)" stroke-width="1.5"></path><path d="M1581.7 -77.36L1558.32 45.88" stroke="hsl(228.5, 77.2%, 51.5%)" stroke-width="1.5"></path><path d="M1581.7 -77.36L1411.45 110.16" stroke="hsl(228.5, 77.2%, 51.5%)" stroke-width="1.5"></path><path d="M1581.7 -77.36L1570.1 217.77" stroke="hsl(228.5, 77.2%, 51.5%)" stroke-width="1.5"></path><path d="M1581.7 -77.36L1244.03 -79.12" stroke="hsl(228.5, 77.2%, 51.5%)" stroke-width="1.5"></path><path d="M1581.7 -77.36L1271.78 74.97" stroke="hsl(228.5, 77.2%, 51.5%)" stroke-width="1.5"></path><path d="M-91.54 544.88L-91.54 544.88" stroke="hsl(228.5, 77.2%, 51.5%)" stroke-width="1.5"></path><path d="M-91.54 544.88L92.11 517.75" stroke="hsl(228.5, 77.2%, 51.5%)" stroke-width="1.5"></path><path d="M-91.54 544.88L208.59 514.12" stroke="hsl(228.5, 77.2%, 51.5%)" stroke-width="1.5"></path><path d="M-91.54 544.88L194.32 668.36" stroke="hsl(228.5, 77.2%, 51.5%)" stroke-width="1.5"></path><path d="M-91.54 544.88L356.85 495.81" stroke="hsl(228.5, 77.2%, 51.5%)" stroke-width="1.5"></path><path d="M92.11 517.75L92.11 517.75" stroke="hsl(228.5, 77.2%, 51.5%)" stroke-width="1.5"></path><path d="M92.11 517.75L208.59 514.12" stroke="hsl(228.5, 77.2%, 51.5%)" stroke-width="1.5"></path><path d="M92.11 517.75L194.32 668.36" stroke="hsl(228.5, 77.2%, 51.5%)" stroke-width="1.5"></path><path d="M92.11 517.75L356.85 495.81" stroke="hsl(228.5, 77.2%, 51.5%)" stroke-width="1.5"></path><path d="M208.59 514.12L208.59 514.12" stroke="hsl(228.5, 77.2%, 51.5%)" stroke-width="1.5"></path><path d="M208.59 514.12L356.85 495.81" stroke="hsl(228.5, 77.2%, 51.5%)" stroke-width="1.5"></path><path d="M194.32 668.36L194.32 668.36" stroke="hsl(228.5, 77.2%, 51.5%)" stroke-width="1.5"></path><path d="M194.32 668.36L208.59 514.12" stroke="hsl(228.5, 77.2%, 51.5%)" stroke-width="1.5"></path><path d="M194.32 668.36L376.13 670.24" stroke="hsl(228.5, 77.2%, 51.5%)" stroke-width="1.5"></path><path d="M356.85 495.81L356.85 495.81" stroke="hsl(228.5, 77.2%, 51.5%)" stroke-width="1.5"></path><path d="M356.85 495.81L513.99 403.72" stroke="hsl(228.5, 77.2%, 51.5%)" stroke-width="1.5"></path><path d="M356.85 495.81L562.38 547.55" stroke="hsl(228.5, 77.2%, 51.5%)" stroke-width="1.5"></path><path d="M356.85 495.81L194.32 668.36" stroke="hsl(228.5, 77.2%, 51.5%)" stroke-width="1.5"></path><path d="M513.99 403.72L513.99 403.72" stroke="hsl(228.5, 77.2%, 51.5%)" stroke-width="1.5"></path><path d="M513.99 403.72L562.38 547.55" stroke="hsl(228.5, 77.2%, 51.5%)" stroke-width="1.5"></path><path d="M513.99 403.72L693.26 559.05" stroke="hsl(228.5, 77.2%, 51.5%)" stroke-width="1.5"></path><path d="M513.99 403.72L376.13 670.24" stroke="hsl(228.5, 77.2%, 51.5%)" stroke-width="1.5"></path><path d="M513.99 403.72L208.59 514.12" stroke="hsl(228.5, 77.2%, 51.5%)" stroke-width="1.5"></path><path d="M693.26 559.05L693.26 559.05" stroke="hsl(228.5, 77.2%, 51.5%)" stroke-width="1.5"></path><path d="M693.26 559.05L808.09 546.47" stroke="hsl(228.5, 77.2%, 51.5%)" stroke-width="1.5"></path><path d="M693.26 559.05L859.2 690.24" stroke="hsl(228.5, 77.2%, 51.5%)" stroke-width="1.5"></path><path d="M693.26 559.05L839.07 380.44" stroke="hsl(228.5, 77.2%, 51.5%)" stroke-width="1.5"></path><path d="M839.07 380.44L839.07 380.44" stroke="hsl(228.5, 77.2%, 51.5%)" stroke-width="1.5"></path><path d="M839.07 380.44L808.09 546.47" stroke="hsl(228.5, 77.2%, 51.5%)" stroke-width="1.5"></path><path d="M839.07 380.44L976.14 524.02" stroke="hsl(228.5, 77.2%, 51.5%)" stroke-width="1.5"></path><path d="M808.09 546.47L808.09 546.47" stroke="hsl(228.5, 77.2%, 51.5%)" stroke-width="1.5"></path><path d="M808.09 546.47L859.2 690.24" stroke="hsl(228.5, 77.2%, 51.5%)" stroke-width="1.5"></path><path d="M808.09 546.47L976.14 524.02" stroke="hsl(228.5, 77.2%, 51.5%)" stroke-width="1.5"></path><path d="M859.2 690.24L859.2 690.24" stroke="hsl(228.5, 77.2%, 51.5%)" stroke-width="1.5"></path><path d="M859.2 690.24L997.98 669.75" stroke="hsl(228.5, 77.2%, 51.5%)" stroke-width="1.5"></path><path d="M976.14 524.02L976.14 524.02" stroke="hsl(228.5, 77.2%, 51.5%)" stroke-width="1.5"></path><path d="M976.14 524.02L997.98 669.75" stroke="hsl(228.5, 77.2%, 51.5%)" stroke-width="1.5"></path><path d="M976.14 524.02L1126.82 556.61" stroke="hsl(228.5, 77.2%, 51.5%)" stroke-width="1.5"></path><path d="M976.14 524.02L1134.53 408.33" stroke="hsl(228.5, 77.2%, 51.5%)" stroke-width="1.5"></path><path d="M997.98 669.75L997.98 669.75" stroke="hsl(228.5, 77.2%, 51.5%)" stroke-width="1.5"></path><path d="M1110.56 214.13L1110.56 214.13" stroke="hsl(228.5, 77.2%, 51.5%)" stroke-width="1.5"></path><path d="M1110.56 214.13L1303.6 229.7" stroke="hsl(228.5, 77.2%, 51.5%)" stroke-width="1.5"></path><path d="M1110.56 214.13L1134.53 408.33" stroke="hsl(228.5, 77.2%, 51.5%)" stroke-width="1.5"></path><path d="M1110.56 214.13L1262.2 338.54" stroke="hsl(228.5, 77.2%, 51.5%)" stroke-width="1.5"></path><path d="M1110.56 214.13L1271.78 74.97" stroke="hsl(228.5, 77.2%, 51.5%)" stroke-width="1.5"></path><path d="M1134.53 408.33L1134.53 408.33" stroke="hsl(228.5, 77.2%, 51.5%)" stroke-width="1.5"></path><path d="M1134.53 408.33L1262.2 338.54" stroke="hsl(228.5, 77.2%, 51.5%)" stroke-width="1.5"></path><path d="M1134.53 408.33L1126.82 556.61" stroke="hsl(228.5, 77.2%, 51.5%)" stroke-width="1.5"></path><path d="M1126.82 556.61L1126.82 556.61" stroke="hsl(228.5, 77.2%, 51.5%)" stroke-width="1.5"></path><path d="M1126.82 556.61L1291.43 526.35" stroke="hsl(228.5, 77.2%, 51.5%)" stroke-width="1.5"></path><path d="M1126.82 556.61L997.98 669.75" stroke="hsl(228.5, 77.2%, 51.5%)" stroke-width="1.5"></path><path d="M1244.03 -79.12L1244.03 -79.12" stroke="hsl(228.5, 77.2%, 51.5%)" stroke-width="1.5"></path><path d="M1244.03 -79.12L1271.78 74.97" stroke="hsl(228.5, 77.2%, 51.5%)" stroke-width="1.5"></path><path d="M1244.03 -79.12L1411.45 110.16" stroke="hsl(228.5, 77.2%, 51.5%)" stroke-width="1.5"></path><path d="M1244.03 -79.12L1303.6 229.7" stroke="hsl(228.5, 77.2%, 51.5%)" stroke-width="1.5"></path><path d="M1244.03 -79.12L1110.56 214.13" stroke="hsl(228.5, 77.2%, 51.5%)" stroke-width="1.5"></path><path d="M1271.78 74.97L1271.78 74.97" stroke="hsl(228.5, 77.2%, 51.5%)" stroke-width="1.5"></path><path d="M1271.78 74.97L1411.45 110.16" stroke="hsl(228.5, 77.2%, 51.5%)" stroke-width="1.5"></path><path d="M1271.78 74.97L1303.6 229.7" stroke="hsl(228.5, 77.2%, 51.5%)" stroke-width="1.5"></path><path d="M1303.6 229.7L1303.6 229.7" stroke="hsl(228.5, 77.2%, 51.5%)" stroke-width="1.5"></path><path d="M1303.6 229.7L1262.2 338.54" stroke="hsl(228.5, 77.2%, 51.5%)" stroke-width="1.5"></path><path d="M1303.6 229.7L1396.91 340.78" stroke="hsl(228.5, 77.2%, 51.5%)" stroke-width="1.5"></path><path d="M1303.6 229.7L1411.45 110.16" stroke="hsl(228.5, 77.2%, 51.5%)" stroke-width="1.5"></path><path d="M1262.2 338.54L1262.2 338.54" stroke="hsl(228.5, 77.2%, 51.5%)" stroke-width="1.5"></path><path d="M1262.2 338.54L1396.91 340.78" stroke="hsl(228.5, 77.2%, 51.5%)" stroke-width="1.5"></path><path d="M1291.43 526.35L1291.43 526.35" stroke="hsl(228.5, 77.2%, 51.5%)" stroke-width="1.5"></path><path d="M1291.43 526.35L1294.38 673.15" stroke="hsl(228.5, 77.2%, 51.5%)" stroke-width="1.5"></path><path d="M1291.43 526.35L1262.2 338.54" stroke="hsl(228.5, 77.2%, 51.5%)" stroke-width="1.5"></path><path d="M1291.43 526.35L1134.53 408.33" stroke="hsl(228.5, 77.2%, 51.5%)" stroke-width="1.5"></path><path d="M1291.43 526.35L1396.91 340.78" stroke="hsl(228.5, 77.2%, 51.5%)" stroke-width="1.5"></path><path d="M1294.38 673.15L1294.38 673.15" stroke="hsl(228.5, 77.2%, 51.5%)" stroke-width="1.5"></path><path d="M1294.38 673.15L1436.35 700.01" stroke="hsl(228.5, 77.2%, 51.5%)" stroke-width="1.5"></path><path d="M1294.38 673.15L1429.53 525.15" stroke="hsl(228.5, 77.2%, 51.5%)" stroke-width="1.5"></path><path d="M1294.38 673.15L1126.82 556.61" stroke="hsl(228.5, 77.2%, 51.5%)" stroke-width="1.5"></path><path d="M1411.45 110.16L1411.45 110.16" stroke="hsl(228.5, 77.2%, 51.5%)" stroke-width="1.5"></path><path d="M1411.45 110.16L1404.58 248.84" stroke="hsl(228.5, 77.2%, 51.5%)" stroke-width="1.5"></path><path d="M1396.91 340.78L1396.91 340.78" stroke="hsl(228.5, 77.2%, 51.5%)" stroke-width="1.5"></path><path d="M1396.91 340.78L1429.53 525.15" stroke="hsl(228.5, 77.2%, 51.5%)" stroke-width="1.5"></path><path d="M1436.35 700.01L1436.35 700.01" stroke="hsl(228.5, 77.2%, 51.5%)" stroke-width="1.5"></path><path d="M1436.35 700.01L1564.79 711.48" stroke="hsl(228.5, 77.2%, 51.5%)" stroke-width="1.5"></path><path d="M1558.32 45.88L1558.32 45.88" stroke="hsl(228.5, 77.2%, 51.5%)" stroke-width="1.5"></path><path d="M1558.32 45.88L1411.45 110.16" stroke="hsl(228.5, 77.2%, 51.5%)" stroke-width="1.5"></path><path d="M1558.32 45.88L1570.1 217.77" stroke="hsl(228.5, 77.2%, 51.5%)" stroke-width="1.5"></path><path d="M1558.32 45.88L1404.58 248.84" stroke="hsl(228.5, 77.2%, 51.5%)" stroke-width="1.5"></path><path d="M1558.32 45.88L1271.78 74.97" stroke="hsl(228.5, 77.2%, 51.5%)" stroke-width="1.5"></path><path d="M1570.1 217.77L1570.1 217.77" stroke="hsl(228.5, 77.2%, 51.5%)" stroke-width="1.5"></path><path d="M1570.1 217.77L1603.92 361.67" stroke="hsl(228.5, 77.2%, 51.5%)" stroke-width="1.5"></path><path d="M1570.1 217.77L1404.58 248.84" stroke="hsl(228.5, 77.2%, 51.5%)" stroke-width="1.5"></path><path d="M1603.92 361.67L1603.92 361.67" stroke="hsl(228.5, 77.2%, 51.5%)" stroke-width="1.5"></path><path d="M1603.92 361.67L1573.95 497.61" stroke="hsl(228.5, 77.2%, 51.5%)" stroke-width="1.5"></path><path d="M1603.92 361.67L1396.91 340.78" stroke="hsl(228.5, 77.2%, 51.5%)" stroke-width="1.5"></path><path d="M1603.92 361.67L1404.58 248.84" stroke="hsl(228.5, 77.2%, 51.5%)" stroke-width="1.5"></path><path d="M1573.95 497.61L1573.95 497.61" stroke="hsl(228.5, 77.2%, 51.5%)" stroke-width="1.5"></path><path d="M1573.95 497.61L1564.79 711.48" stroke="hsl(228.5, 77.2%, 51.5%)" stroke-width="1.5"></path><path d="M1573.95 497.61L1396.91 340.78" stroke="hsl(228.5, 77.2%, 51.5%)" stroke-width="1.5"></path><path d="M1573.95 497.61L1436.35 700.01" stroke="hsl(228.5, 77.2%, 51.5%)" stroke-width="1.5"></path><path d="M1564.79 711.48L1564.79 711.48" stroke="hsl(228.5, 77.2%, 51.5%)" stroke-width="1.5"></path><circle r="25" cx="-42.81" cy="676.11" fill="url(&quot;#SvgjsRadialGradient1724&quot;)"></circle><circle r="25" cx="376.13" cy="670.24" fill="url(&quot;#SvgjsRadialGradient1724&quot;)"></circle><circle r="25" cx="562.38" cy="547.55" fill="url(&quot;#SvgjsRadialGradient1724&quot;)"></circle><circle r="25" cx="561.55" cy="645.07" fill="url(&quot;#SvgjsRadialGradient1724&quot;)"></circle><circle r="25" cx="981.76" cy="392.22" fill="url(&quot;#SvgjsRadialGradient1724&quot;)"></circle><circle r="25" cx="1404.58" cy="248.84" fill="url(&quot;#SvgjsRadialGradient1724&quot;)"></circle><circle r="25" cx="1429.53" cy="525.15" fill="url(&quot;#SvgjsRadialGradient1724&quot;)"></circle><circle r="25" cx="1581.7" cy="-77.36" fill="url(&quot;#SvgjsRadialGradient1724&quot;)"></circle><circle r="5" cx="-91.54" cy="544.88" fill="#8b9ad9"></circle><circle r="5" cx="92.11" cy="517.75" fill="#8b9ad9"></circle><circle r="5" cx="208.59" cy="514.12" fill="#8b9ad9"></circle><circle r="5" cx="194.32" cy="668.36" fill="#8b9ad9"></circle><circle r="5" cx="356.85" cy="495.81" fill="#8b9ad9"></circle><circle r="5" cx="513.99" cy="403.72" fill="#8b9ad9"></circle><circle r="5" cx="693.26" cy="559.05" fill="#8b9ad9"></circle><circle r="5" cx="839.07" cy="380.44" fill="#8b9ad9"></circle><circle r="5" cx="808.09" cy="546.47" fill="#8b9ad9"></circle><circle r="5" cx="859.2" cy="690.24" fill="#8b9ad9"></circle><circle r="5" cx="976.14" cy="524.02" fill="#8b9ad9"></circle><circle r="5" cx="997.98" cy="669.75" fill="#8b9ad9"></circle><circle r="5" cx="1110.56" cy="214.13" fill="#8b9ad9"></circle><circle r="5" cx="1134.53" cy="408.33" fill="#8b9ad9"></circle><circle r="5" cx="1126.82" cy="556.61" fill="#8b9ad9"></circle><circle r="5" cx="1244.03" cy="-79.12" fill="#8b9ad9"></circle><circle r="5" cx="1271.78" cy="74.97" fill="#8b9ad9"></circle><circle r="5" cx="1303.6" cy="229.7" fill="#8b9ad9"></circle><circle r="5" cx="1262.2" cy="338.54" fill="#8b9ad9"></circle><circle r="5" cx="1291.43" cy="526.35" fill="#8b9ad9"></circle><circle r="5" cx="1294.38" cy="673.15" fill="#8b9ad9"></circle><circle r="5" cx="1411.45" cy="110.16" fill="#8b9ad9"></circle><circle r="5" cx="1396.91" cy="340.78" fill="#8b9ad9"></circle><circle r="5" cx="1436.35" cy="700.01" fill="#8b9ad9"></circle><circle r="5" cx="1558.32" cy="45.88" fill="#8b9ad9"></circle><circle r="5" cx="1570.1" cy="217.77" fill="#8b9ad9"></circle><circle r="5" cx="1603.92" cy="361.67" fill="#8b9ad9"></circle><circle r="5" cx="1573.95" cy="497.61" fill="#8b9ad9"></circle><circle r="5" cx="1564.79" cy="711.48" fill="#8b9ad9"></circle></g><defs><mask id="SvgjsMask1723"><rect width="1440" height="560" fill="#ffffff"></rect></mask><radialGradient id="SvgjsRadialGradient1724"><stop stop-color="#ffffff" offset="0.1"></stop><stop stop-color="rgba(23, 53, 179, 1)" offset="0.2"></stop><stop stop-color="rgba(23, 53, 179, 0)" offset="1"></stop></radialGradient></defs></svg>